<?xml version="1.0" encoding="UTF-8"?>
<!DOCTYPE svg PUBLIC "-//W3C//DTD SVG 1.1//EN" "http://www.w3.org/Graphics/SVG/1.1/DTD/svg11.dtd">
<!-- Creator: CorelDRAW 2021.5 -->
<svg xmlns="http://www.w3.org/2000/svg" xml:space="preserve" width="210mm" height="297mm" version="1.1" style="shape-rendering:geometricPrecision; text-rendering:geometricPrecision; image-rendering:optimizeQuality; fill-rule:evenodd; clip-rule:evenodd"
viewBox="0 0 21000 29700"
 xmlns:xlink="http://www.w3.org/1999/xlink"
 xmlns:xodm="http://www.corel.com/coreldraw/odm/2003">
 <defs>
  <style type="text/css">
   <![CDATA[
    .fil1 {fill:black}
    .fil0 {fill:black;fill-rule:nonzero}
    .fil2 {fill:white;fill-rule:nonzero}
   ]]>
  </style>
 </defs>
 <g id="Слой_x0020_1">
  <metadata id="CorelCorpID_0Corel-Layer"/>
  <path class="fil2" d="M2039.24 7210.46l0 850.36c0,160.55 8.88,280.77 27.44,358.22 17.75,78.26 51.63,142.8 100.04,193.63 42.76,44.37 91.97,76.64 148.45,98.43 55.67,20.97 129.08,33.88 221.06,38.72l0 53.25 -1506.28 0 0 -53.25c91.17,-4.84 164.58,-17.75 221.06,-38.72 55.67,-21.79 104.88,-54.06 147.64,-98.43 50.02,-50.83 83.91,-114.57 101.66,-192.02 16.94,-77.45 25.82,-196.86 25.82,-359.83l0 -1744.28c0,-135.54 -5.65,-240.43 -17.75,-313.84 -12.11,-73.42 -32.28,-133.12 -60.51,-178.3 -40.34,-63.74 -92.78,-110.54 -155.71,-141.19 -62.93,-30.66 -145.23,-49.22 -246.08,-55.67l-16.13 0 0 -53.25 1423.18 0c248.49,0 431.63,12.91 549.42,37.92 117.8,25.01 225.91,75.84 323.53,150.87 223.48,170.23 334.82,397.75 334.82,680.93 0,288.83 -113.76,500.21 -340.47,634.14 -117.79,69.38 -261.4,111.34 -430.02,125.05 -54.06,4.84 -183.14,7.26 -388.07,7.26l-463.1 0zm0 -72.61l231.55 0c156.52,0 276.73,-11.29 361.45,-34.69 83.9,-22.59 159.74,-64.54 225.9,-126.67 154.1,-140.38 231.55,-327.55 231.55,-561.52 0,-129.9 -22.59,-248.5 -67.77,-356.61 -44.38,-108.11 -108.92,-196.85 -192.83,-264.62 -96,-80.68 -210.57,-127.48 -342.88,-142 -36.31,-3.23 -118.6,-4.84 -248.49,-4.84l-198.48 0 0 1490.95z"/>
  <path id="_1_0" class="fil2" d="M7118.8 8803.07l-1554.68 0 0 -53.25c140.38,-12.91 238.81,-36.3 293.67,-71 97.62,-61.31 146.84,-146.83 146.84,-255.75 0,-64.54 -21.79,-150.87 -66.16,-259.79l-40.34 -99.23 -226.71 -558.3 -1042.37 0 -123.44 326.75 -59.71 146.03c-70.99,173.46 -106.49,309.81 -106.49,409.04 0,58.9 12.91,112.95 39.53,163.78 25.82,50.02 60.51,91.17 104.88,122.63 62.13,42.76 141.19,67.77 238.01,75.84l0 53.25 -1060.13 0 0 -53.25c83.91,-4.84 156.52,-25.01 220.26,-61.31 62.93,-36.31 124.24,-95.21 183.95,-175.08 50.82,-64.54 100.04,-148.45 148.44,-250.1 47.61,-101.66 111.34,-254.14 189.6,-457.45l864.88 -2231.59 135.54 0 1031.08 2486.53c77.45,187.98 138.77,321.91 184.76,402.59 45.18,80.68 95.2,141.19 148.45,182.34 37.92,28.23 81.48,50.02 129.89,65.35 49.21,14.52 122.63,27.43 220.25,38.72l0 53.25zm-1484.49 -1394.14l-496.18 -1226.32 -471.17 1226.32 967.35 0z"/>
  <path id="_2_1" class="fil2" d="M8194.25 7224.99l0 836.64c0,161.36 8.88,280.76 27.44,358.21 18.55,78.26 51.63,142.81 100.84,192.83 42.76,44.37 92.79,76.64 149.26,98.43 56.48,20.97 129.89,33.88 222.68,38.72l0 53.25 -1509.51 0 0 -53.25c91.17,-4.84 164.58,-17.75 221.06,-38.72 55.67,-21.79 104.88,-54.06 147.64,-98.43 50.02,-50.83 83.91,-114.57 101.66,-192.02 16.94,-77.45 25.82,-196.86 25.82,-359.83l0 -1744.28c0,-162.97 -8.88,-282.38 -25.82,-359.83 -17.75,-77.45 -51.64,-141.19 -101.66,-192.02 -42.76,-45.98 -91.97,-79.06 -149.25,-99.23 -56.48,-20.17 -129.9,-33.08 -219.45,-37.92l0 -53.25 1139.99 0c190.41,0 315.46,0.81 375.97,2.42 244.46,11.3 435.67,44.37 574.44,99.24 156.51,62.93 277.53,157.32 363.05,283.18 86.33,125.05 129.09,271.08 129.09,436.47 0,246.08 -92.78,442.93 -279.15,591.38 -56.48,44.38 -119.41,80.68 -187.98,108.92 -68.58,28.24 -160.56,55.67 -275.12,80.68 92.78,39.53 162.17,80.68 206.54,122.63 36.3,33.08 68.58,75.03 98.43,124.25 29.04,50.02 73.42,137.96 132.31,263.82 140.38,288.83 246.07,500.21 317.88,633.33 71.8,133.12 132.31,229.93 180.72,289.64 39.53,49.21 77.45,83.1 114.56,101.65 37.12,19.37 87.94,31.47 152.49,37.92l0 53.25 -780.17 0c-39.53,-86.33 -64.54,-142 -75.84,-165.39l-165.39 -375.97c-100.04,-225.09 -200.09,-424.37 -300.94,-597.02 -100.84,-171.85 -193.63,-289.64 -277.53,-352.57 -42.76,-31.47 -88.75,-54.06 -137.16,-66.96 -49.21,-13.72 -109.72,-20.17 -180.72,-20.17l-116.18 0zm0 -53.25l90.37 0c196.85,0 338.04,-11.3 422.75,-33.08 84.72,-22.59 164.59,-67.77 238.81,-137.16 167.01,-158.13 250.11,-354.18 250.11,-587.34 0,-125.05 -24.2,-242.04 -72.61,-351.76 -48.41,-109.72 -115.37,-200.09 -200.89,-271.08 -66.97,-54.06 -146.03,-91.17 -238.01,-112.15 -91.97,-21.78 -223.48,-32.27 -392.9,-32.27l-97.63 0 0 1524.84z"/>
  <path id="_3_2" class="fil2" d="M10907.5 6001.89l0 2058.93c0,162.97 8.87,282.38 27.43,359.83 17.75,77.45 51.64,141.19 100.04,192.02 44.38,45.98 94.4,79.06 150.07,99.23 56.47,20.17 129.08,33.08 218.64,37.92l0 53.25 -1089.17 0 0 -53.25c89.55,-4.84 162.16,-17.75 218.64,-37.92 55.67,-20.17 105.69,-53.25 150.06,-99.23 48.41,-50.83 82.29,-115.37 100.04,-192.83 18.56,-78.25 27.43,-197.66 27.43,-359.02l0 -1746.7c0,-159.75 -8.87,-278.35 -27.43,-356.6 -17.75,-78.26 -51.63,-142 -100.04,-192.83 -42.76,-45.98 -91.97,-79.06 -147.64,-99.23 -56.48,-20.17 -129.89,-33.08 -221.06,-37.92l0 -53.25 910.06 0 1919.36 2451.03 0 -1708.78c0,-162.97 -8.88,-282.38 -27.43,-359.83 -17.75,-77.45 -51.64,-141.19 -100.05,-192.02 -44.37,-45.98 -94.39,-79.06 -150.06,-99.23 -56.48,-20.17 -129.09,-33.08 -218.64,-37.92l0 -53.25 1089.17 0 0 53.25c-157.33,0 -279.96,45.99 -368.71,137.15 -48.4,50.83 -82.29,114.57 -100.04,192.83 -18.55,78.25 -27.43,196.85 -27.43,356.6l0 2488.95 -106.5 0 -2226.74 -2801.18z"/>
  <path id="_4_3" class="fil2" d="M15481.2 5574.29l0 53.25c-89.55,4.84 -162.16,17.75 -218.64,37.92 -55.67,20.17 -105.69,53.25 -150.06,99.23 -61.32,62.93 -99.24,150.87 -112.95,263.02 -9.68,83.9 -14.53,179.91 -14.53,288.83l0 1744.28c0,131.51 6.46,234.78 18.56,310.62 12.91,75.03 33.08,136.34 62.12,181.52 40.34,63.74 93.59,110.54 158.14,141.19 64.54,30.66 150.06,49.22 257.36,55.67l0 53.25 -1505.47 0 0 -53.25c91.17,-4.84 164.58,-17.75 221.06,-38.72 55.67,-21.79 104.88,-54.06 147.64,-98.43 50.02,-50.83 83.91,-114.57 101.66,-192.02 16.94,-77.45 25.82,-196.86 25.82,-359.83l0 -1744.28c0,-162.97 -8.88,-282.38 -25.82,-359.83 -17.75,-77.45 -51.64,-141.19 -101.66,-192.02 -42.76,-45.98 -91.97,-79.06 -149.25,-99.23 -56.48,-20.17 -129.9,-33.08 -219.45,-37.92l0 -53.25 1505.47 0z"/>
  <path id="_5_4" class="fil2" d="M16726.88 7156.41l1002.04 -993.97c99.24,-97.62 161.36,-164.58 185.56,-200.08 25.01,-35.5 37.11,-74.23 37.11,-116.99 0,-77.45 -37.91,-135.54 -113.75,-175.07 -39.54,-19.36 -106.5,-33.08 -199.28,-42.76l0 -53.25 1019.78 0 0 53.25c-69.38,6.45 -127.47,17.75 -174.26,34.69 -45.99,16.14 -96.82,44.37 -152.49,83.91 -61.31,43.56 -167,137.96 -317.07,281.57l-767.25 735.79 1090.78 1392.52 134.73 172.66c99.24,122.63 202.51,219.44 309,288.83 64.55,41.95 121.83,72.61 170.24,91.17 49.21,17.74 110.53,31.46 184.75,41.14l0 53.25 -1562.75 0 0 -53.25c118.59,-9.68 204.11,-29.04 255.75,-58.89 52.44,-30.66 78.26,-74.23 78.26,-133.12 0,-62.93 -32.27,-143.61 -96.82,-241.24 -31.46,-47.6 -91.16,-129.08 -177.49,-246.07 -87.13,-116.98 -160.55,-211.38 -220.26,-283.99l-532.48 -660.76 -154.1 151.68 0 783.39c0,161.36 8.88,280.77 27.44,359.02 17.75,77.46 51.63,142 100.04,192.83 42.76,44.37 91.97,76.64 148.45,98.43 55.67,20.97 129.89,33.88 221.06,38.72l0 53.25 -1506.28 0 0 -53.25c91.17,-4.84 164.58,-17.75 221.06,-38.72 55.67,-21.79 104.88,-54.06 147.64,-98.43 50.02,-50.83 83.91,-114.57 101.66,-192.02 16.94,-77.45 25.82,-196.86 25.82,-359.83l0 -1744.28c0,-162.97 -8.88,-282.38 -25.82,-359.83 -17.75,-77.45 -51.64,-141.19 -101.66,-192.02 -42.76,-45.98 -91.97,-79.06 -149.25,-99.23 -56.48,-20.17 -129.9,-33.08 -219.45,-37.92l0 -53.25 1506.28 0 0 53.25c-89.56,4.84 -162.97,17.75 -218.64,37.92 -56.48,20.17 -106.5,53.25 -150.87,99.23 -48.41,50.83 -82.29,114.57 -100.04,192.83 -18.56,78.25 -27.44,197.66 -27.44,359.02l0 839.87z"/>
 </g>
</svg>
